<svg width="1536" height="1024" viewBox="0 0 1536 1024" fill="none" xmlns="http://www.w3.org/2000/svg">
<path d="M222.116 213.386C238.796 199.726 263.721 202.977 273.117 223.617C280.434 239.691 269.402 265.781 262.771 281.372C263.696 285.339 264.747 288.742 265.958 292.636C280.042 292.18 285.5 292.256 295.079 303.428C295.757 308.439 295.564 311.546 300.816 313.548C312.202 317.885 314.635 322.239 318.956 333.05C349.685 340.664 422.174 377.975 446.483 397.023C444.341 380.653 445.338 355.22 447.248 338.839C448.926 324.451 465.462 312.335 479.141 311.914C501.269 310.255 516.202 314.892 525.81 335.433C541.621 330.235 555.194 328.999 569.645 338.446C570.437 336.556 571.37 333.43 573.473 333.341C595.887 332.392 637.844 331.974 659.143 332.891C659.082 328.58 658.158 315.916 660.455 313.104C666.439 311.352 675.566 312.024 681.983 312.102C703.381 312.363 702.775 313.68 702.574 332.698C737.686 328.647 751.808 341.393 750.608 376.442L742.792 380.076C753.015 392.999 753.833 400.818 752.955 416.887C751.298 447.336 699.928 445.771 686.699 425.482C679.176 413.944 681.05 401.161 681.004 388.32C682.672 386.774 684.651 385.036 686.219 383.437C680.543 375.95 682.566 370.441 673.312 371.226C672.407 388.484 668.406 406.564 666.962 423.467C664.523 451.995 657.446 462.099 626.837 461.068C617.999 460.77 613.781 456.224 609.062 449.261L608.738 438.324C590.887 438.475 572.951 438.779 555.124 438.014C551.423 437.855 543.304 440.478 540.407 439.991C529.35 438.132 527.994 435.345 516.798 438.942C515.591 439.33 501.352 437.267 497.92 437.339C502.252 449.841 527.651 481.553 505.743 491.257C499.546 494.003 488.66 492.935 482.31 491.812C465.695 490.106 391.368 455.9 380.95 470.431C380.641 473.317 381.95 475.305 383.672 477.488C407.441 507.612 481.154 532.107 476.122 580.45C475.523 586.21 473.473 590.987 468.902 594.647C457.937 603.427 441.236 602.956 428 601.327C405.44 598.55 382.895 591.652 360.918 585.981C352.74 583.871 344.391 581.248 336.038 580.044C333.152 579.629 329.323 579.236 326.836 581.029C325.457 582.024 324.779 583.101 324.493 584.812C322.12 598.965 368.829 638.16 342.231 660.318C337.88 663.91 332.25 665.567 326.648 664.904C315.883 663.684 302.222 654.055 294.798 646.35C294.597 682.327 289.333 709.586 325.145 727.715C331.982 731.176 353.497 738.98 355.42 745.155C349.427 765.554 304.781 751.691 291.769 746.123C286.403 743.827 270.86 750.768 266.238 739.065C262.505 729.608 268.874 719.035 266.141 709.17C261.785 686.361 248.838 667.271 250.193 643.747L247.395 644.294C246.893 646.66 246.485 650.799 246.424 653.162C245.888 673.777 231.914 685.687 211.5 679.695C200.512 676.469 195.308 671.495 186.674 664.342C181.373 677.656 175.736 693.387 174.346 707.858C173.291 714.245 177.435 723.389 177.405 729.17C177.316 746.146 179.866 759.065 187.15 774.474C190.577 781.728 192.924 793.784 182.69 797.234C168.795 801.916 144.522 795.877 139.059 780.655C135.482 770.16 140.693 758.015 140.813 747.566C140.937 736.778 140.878 726.146 141.545 715.365C141.155 711.289 140.075 705.533 138.956 701.651C129.11 667.515 133.676 648.703 148.998 617.84C110.742 553.396 83.9791 454.994 95.5591 380.155C102.43 335.755 147.014 259.008 202.104 289.394C211.254 277.324 211.573 270.841 212.844 255.92C214.146 240.632 215.846 227.473 222.116 213.386ZM328.185 439.756C330.74 440.817 338.464 443.507 339.08 446.754C341.009 456.937 342.157 476.704 340.864 487.119C338.967 490.604 336.116 490.521 337.348 495.043C340.098 505.141 350.208 515.017 343.064 526.081C335.079 538.446 319.743 532.546 310.137 528.336L307.607 527.733L306.731 528.417C306.154 529.738 305.278 542.554 304.727 546.236C303.29 555.841 297.051 569.876 296.055 578.329C294.367 592.662 295.873 610.704 295.388 625.819C301.455 633.394 308.785 638.87 317.429 643.234C321.357 645.217 327.088 647.897 331.516 646.162C333.566 645.358 335.436 643.089 336.116 641.025C339.031 632.18 319.562 604.724 315.503 595.289C312.824 589.059 308.887 579.049 311.876 572.315C313.815 567.945 318.395 566.531 322.82 566.372C334.62 565.947 347.459 570.207 358.788 573.201C384.367 579.96 428.12 593.05 453.971 583.831C458.314 582.281 462.501 579.661 464.355 575.224C475.828 547.761 377.117 504.993 364.718 475.55C362.541 470.38 361.972 464.239 364.334 459.02C378.254 428.251 474.976 484.554 497.416 474.628C498.81 474.011 498.851 473.539 499.358 472.212C496.522 461.694 482.941 446.388 475.778 437.593C463.395 435.954 450.79 424.53 447.482 412.409C441.309 407.499 424.433 397.305 417.647 393.39C400.2 383.371 382.385 374.011 364.237 365.327C350.274 358.742 335.839 352.766 321.915 346.145C322.12 351.847 322.444 357.637 322.994 363.294C325.185 385.809 321.878 407.952 327.113 430.315C327.773 433.137 328.151 436.851 328.185 439.756ZM608.356 425.31C612.162 424.88 616.259 424.339 620.052 424.105L621.479 423.68C621.296 420.155 619.425 412.087 618.679 408.094L613.556 379.463C611.847 378.4 611.069 378.645 608.946 378.705C608.385 394.028 608.462 409.931 608.356 425.31ZM125.335 465.077L124.91 465.934C126.24 472.826 128.27 479.412 129.398 486.272C137.048 512.196 142.3 539.438 153.202 564.904C156.803 573.317 160.931 579.885 164.768 588.425C168.714 581.241 169.039 552.825 170.284 543.207C171.227 535.91 172.451 527.553 173.593 520.135C161.438 527.664 166.259 518.991 154.797 523.964C146.905 519.992 144.859 517.974 138.805 511.261C137.535 504.546 135.182 488.587 131.598 483.84C129.788 481.504 126.391 468.62 125.335 465.077ZM249.542 601.269C249.776 597.692 250.323 588.72 249.893 585.591C248.535 575.716 241.636 545.031 237.925 536.79C227.918 562.618 214.843 586.32 204.661 612.095C200.936 621.524 196.275 629.035 193.64 639.13C202.201 649.768 210.637 657.445 224.236 661.61C232.601 654.463 234.086 649.877 236.063 639.186L235.838 638.52C232.13 627.82 213.098 602.47 232.562 596.456C239.955 594.172 244.204 596.489 249.542 601.269Z" fill="#020200"/>
<path d="M446.483 397.023C444.341 380.653 445.338 355.22 447.248 338.839C448.926 324.451 465.462 312.335 479.141 311.914C501.269 310.255 516.202 314.892 525.81 335.433C541.621 330.235 555.194 328.999 569.645 338.447C570.437 336.556 571.37 333.43 573.473 333.341C595.887 332.393 637.844 331.974 659.143 332.891C659.082 328.58 658.158 315.916 660.455 313.104C666.439 311.352 675.566 312.024 681.983 312.102C703.381 312.363 702.775 313.68 702.574 332.699C737.686 328.647 751.808 341.393 750.608 376.443L742.792 380.076C753.015 392.999 753.833 400.818 752.955 416.887C751.298 447.336 699.928 445.771 686.699 425.482C679.176 413.944 681.05 401.161 681.004 388.32C682.672 386.774 684.651 385.036 686.219 383.437C680.543 375.95 682.566 370.441 673.312 371.227C672.407 388.484 668.406 406.564 666.962 423.467C664.523 451.995 657.446 462.099 626.837 461.068C617.999 460.77 613.781 456.224 609.062 449.261L608.738 438.324C590.887 438.475 572.951 438.779 555.124 438.014C551.423 437.855 543.304 440.478 540.407 439.991C529.35 438.132 527.994 435.345 516.798 438.942C515.591 439.33 501.352 437.267 497.92 437.339C496.661 438.385 496.158 439.061 494.678 439.542C491.204 438.254 485.418 437.916 481.768 438.699C480.039 438.643 477.549 437.979 475.778 437.593C463.395 435.954 450.79 424.53 447.482 412.409C447.806 410.203 447.776 410.283 447.335 408.075L447.016 402.157C447.029 400.658 446.687 398.571 446.483 397.023ZM608.356 425.31C612.162 424.88 616.259 424.339 620.052 424.105L621.479 423.68C621.296 420.155 619.425 412.087 618.679 408.094L613.556 379.463C611.847 378.4 611.069 378.645 608.946 378.705C608.385 394.028 608.462 409.931 608.356 425.31Z" fill="#001B82"/>
<path d="M481.381 319.079C483.466 318.97 485.554 318.903 487.642 318.879C516.27 318.834 514.732 337.484 514.331 359.253L492.108 359.266C492.287 353.363 493.111 346.541 491.985 340.768C491.549 338.538 490.828 336.452 488.827 335.197C487.657 334.463 486.036 334.26 484.697 334.658C483.172 335.111 482.019 336.299 481.31 337.688C479.152 341.917 478.918 401.777 481.027 406.887C481.722 408.569 482.817 409.756 484.594 410.27C486.129 410.713 488.053 410.598 489.406 409.707C491.546 408.301 492.358 405.572 492.744 403.176C493.569 398.047 493.945 388.534 490.827 384.119C489.094 383.886 489.063 383.943 487.402 383.157C486.571 379.123 486.919 371.981 486.976 367.633L498.082 367.637L514.28 367.554C514.164 385.242 513.4 407.671 514.322 425.008C511.16 425.1 508.534 425.111 505.374 424.998C502.606 423.295 504.918 423.277 502.981 419.392C497.592 421.857 495.466 424.756 489.009 426.078C481.54 427.71 470.308 426.019 463.913 421.598C456.323 416.35 455.373 401.258 455.48 393.104C455.701 376.262 454.737 359.606 456.163 342.851C456.538 338.439 458.6 331.826 461.278 328.178C466.166 322.204 474.046 320.082 481.381 319.079Z" fill="#F9F900"/>
<path d="M544.276 338.645C574.039 336.234 569.052 362.713 569.266 382.945C569.412 396.74 568.208 411.609 570.997 425.104C565.689 424.965 559.839 425.857 554.981 425.171C551.599 424.693 551.308 420.939 550.035 418.673C540.502 428.748 525.62 431.114 520.605 415.4C516.733 386.202 521.675 378.235 549.701 372.392C549.727 366.104 550.789 355.879 545.017 351.83C539.371 352.351 539.926 364.886 539.942 369.1L521.059 369.845C520.483 350.248 521.902 340.038 544.276 338.645Z" fill="#F9F900"/>
<path d="M548.137 385.459C549.123 385.613 548.635 385.451 549.49 386.346C549.81 391.725 551.38 404.81 547.751 409.422C546.411 411.124 544.202 410.99 542.235 411.175C539.123 407.747 538.328 400.562 539.397 396.112C540.856 390.046 542.897 388.504 548.137 385.459Z" fill="#001B82"/>
<path d="M706.411 339.263C708.44 339.109 710.473 338.981 712.506 338.879C735.447 337.788 738.283 347.959 738.012 367.693L719.225 367.726C719.299 361.979 720.498 355.45 714.434 352.638C710.269 353.71 708.436 357.554 708.962 361.688C710.308 371.852 722.589 374.024 729.658 379.522C739.349 387.061 740.233 394.731 739.483 406.249C738.525 420.928 730.817 424.87 717.728 426.297C688.518 426.361 689.211 417.459 689.255 392.039L707.895 392.074C708.483 398.383 707.54 405.711 710.839 411.003C719.135 416.135 720.638 401.216 718.865 397.423C713.116 385.124 690.328 383.376 688.58 367.418C686.884 351.935 690.446 342.154 706.411 339.263Z" fill="#F9F900"/>
<path d="M646.216 339.827L663.272 339.897C661.54 366.456 655.706 393.833 652.655 420.272C649.883 444.295 642.244 449.244 618.393 447.331C617.963 447.296 617.534 447.259 617.104 447.218L616.822 431.261C621.688 431.286 627.436 432.107 630.844 428.926C631.523 423.152 628.785 410.488 627.632 404.111C625.088 390.29 622.637 376.451 620.279 362.597C619.134 355.85 617.221 346.369 616.91 339.888H634.927C636.121 354.954 639.272 374.955 639.916 389.053L640.722 388.912L642.057 385.803C642.335 372.77 644.856 353.099 646.216 339.827Z" fill="#F9F900"/>
<path d="M639.916 389.053L640.722 388.911L642.057 385.803C641.89 389.293 642.01 392.084 640.553 395.258C639.666 394.33 639.784 390.324 639.916 389.053Z" fill="#625F47"/>
<path d="M595.731 352.377C599.066 345.389 603.722 337.804 612.939 339.993C614.389 343.649 613.619 356.473 613.514 360.952C590.087 360.463 595.997 378.489 596.111 396.472L596.063 425L576.923 425.117C576.398 397.266 576.864 367.921 576.857 339.95L596.184 339.839C596.156 343.915 595.898 348.281 595.731 352.377Z" fill="#F9F900"/>
<path d="M666.864 319.572L687.414 319.536C687.281 333.178 691.899 349.825 678.004 357.309C674.785 358.103 670.316 358.057 666.904 358.153C666.735 353.435 665.718 351.243 669.379 348.092C671.528 347.747 672.602 347.826 674.148 346.449C675.248 343.718 675.038 342.682 674.877 339.827C671.81 337.805 670.922 340.114 667.425 338.384C666.174 335.409 666.8 323.432 666.864 319.572Z" fill="#F9F900"/>
<path d="M481.768 438.699C485.418 437.916 491.204 438.254 494.677 439.542C495.323 441.615 497.338 443.797 498.487 445.707C503.905 454.703 510.738 465.802 511.117 476.538C511.237 479.938 510.773 483.459 508.236 485.969C497.183 496.904 465.106 483.437 452.459 479.113C442.21 475.61 431.952 471.936 421.558 468.888C410.922 465.769 398.553 463 387.433 463.349C384.39 463.444 381.031 464.077 378.958 466.512C377.674 468.019 377.188 469.873 377.409 471.826C378.937 485.344 423.898 512.943 436.102 522.245C452.767 534.947 470.459 550.133 473.225 572.315C473.995 578.492 473.437 584.842 469.435 589.866C464.746 595.753 456.938 598.065 449.731 598.744C442.303 599.444 434.289 599.19 426.932 597.985C418.183 596.553 387.061 586.714 380.834 581.511C381.751 580.714 382.188 581.052 383.334 581.354C399.217 585.535 417.69 590.313 434.149 589.772C444.185 589.442 458.504 588.195 465.569 580.19C467.957 577.484 468.648 574.288 468.495 570.771C467.353 544.436 399.385 508.13 380.074 490.771C373.039 484.446 366.101 476.494 365.729 466.545C365.592 462.881 366.351 459.318 369.041 456.65C385.88 439.943 466.228 479.344 491.979 478.587C496.097 478.466 500.881 477.387 503.572 473.993C504.763 472.491 504.684 471.686 504.378 469.882L501.946 469.573C495.901 457.494 488.757 449.852 481.768 438.699Z" fill="#F9F900"/>
<path d="M306.652 508.651C303.319 504.999 302.628 485.683 301.727 479.643C300.466 471.186 295.388 458.19 296.189 450.315C299.763 442.383 328.014 436.622 333.931 445.014C332.921 446.901 328.348 444.956 325.097 447.111C327.435 455.544 326.398 473.568 335.157 477.396L333.52 477.68L332.441 480.182L332.75 480.78L336.88 481.813L337.733 482.037L339.061 480.525C338.962 482.908 339.321 484.663 338.159 486.354C326.563 486.823 307.821 486.19 306.74 501.903C306.722 503.988 306.781 506.62 306.652 508.651Z" fill="#D42B1D"/>
<path d="M324.803 482.477C322.741 474.921 320.877 461.844 319.286 453.647C318.593 450.075 318.984 448.82 320.958 446.397L322.164 446.394C325.042 452.942 320.645 479.372 332.75 480.78L336.88 481.813L336.304 483.13C333.659 483.7 327.791 482.804 324.803 482.477Z" fill="#020200"/>
<path d="M320.12 335.57C345.664 343.279 430.664 384.251 447.016 402.157L447.334 408.075C444.933 407.727 421.199 392 417.226 389.653C386.929 371.753 354.413 356.671 321.96 343.292C321.572 340.768 320.774 338.061 320.12 335.57Z" fill="#F9F900"/>
<path d="M306.74 501.902C310.931 495.336 321.733 487.962 329.554 489.669C332.249 491.641 333.328 497.122 334.895 500.465C338.022 507.136 341.505 511.609 342.744 519.019C339.829 523.637 335.665 532.147 329.293 529.226L330.05 528.465C332.627 525.842 335.063 523.673 335.035 519.933C334.018 519.279 333.041 518.742 331.912 518.293L331.667 515.971L331.206 515.759C330.142 522.762 328.078 522.322 323.998 528.697L323.786 529.049C320.522 529.496 317.917 529.532 314.989 527.986L314.833 527.137C321.079 524.462 321.062 523.829 325.039 518.06C324.076 512.541 323.866 511.982 321.616 506.828L320.635 507.241C319.22 509.076 319.308 509.246 319.29 511.679L320.007 512.274L321.387 510.221L321.999 510.613C324.07 525.178 318.572 518.331 314.08 526.632L313.232 526.591C312.286 524.851 311.527 514.425 311.2 511.633L310.408 511.067C308.733 512.618 308.321 514.088 307.42 516.183L306.922 515.889C306.649 514.268 306.685 510.454 306.652 508.651C306.781 506.62 306.722 503.988 306.74 501.902Z" fill="#FAF9F7"/>
<path d="M247.395 644.294C247.222 639.885 246.672 637.056 246.081 632.828C245.181 626.383 236.341 606.016 248.553 605.624C253.633 609.407 253.675 629.921 251.972 635.566C251.185 638.177 250.675 641.012 250.193 643.747L247.395 644.294Z" fill="#F9F900"/>
<path d="M337.279 470.977C334.7 467.268 330.571 469.483 330.152 464.978C329.883 462.088 331.457 460.363 334.175 460.05C338.435 462.634 337.653 465.904 337.778 470.538L337.279 470.977Z" fill="#F9F900"/>
<path d="M337.778 470.538C338.515 474.068 338.497 477.143 339.062 480.525L337.733 482.037L336.88 481.813L332.75 480.78L332.441 480.182L333.52 477.68L335.157 477.396C336.919 475.385 336.867 473.67 337.279 470.977L337.778 470.538Z" fill="#DE3519"/>
<path d="M306.923 515.889L307.42 516.183C310.483 520.29 310.106 523.23 310.137 528.336L307.608 527.733C306.375 524.693 306.838 519.357 306.923 515.889Z" fill="#FAF9F7"/>
<path d="M151.22 736.949C147.634 724.338 145.916 714.086 143.095 702.033C136.268 672.87 135.033 653.906 149.289 626.52C155.36 614.857 164.388 604.136 168.38 591.704C175.238 570.347 171.436 545.599 176.363 523.035C178.373 513.825 184.799 511.219 186.675 503.307C187.409 500.208 183.601 493.793 184.177 489.363C185.081 482.401 192.152 445.729 196.732 442.967C211.388 434.132 248.62 436.138 265.535 437.81C272.495 438.498 282.276 441.084 289.115 442.242C290.849 453.927 294.773 464.153 296.519 474.629C299.474 495.908 304.065 520.294 301.499 541.773C299.42 559.169 289.88 575.862 291.061 594.592C291.115 595.451 289.489 602.944 289.241 604.522C290.479 604.893 289.862 604.8 291.092 604.811C292.676 607.566 292.088 608.521 291.684 612.165L291.449 618.956L288.744 620.201C293.174 631.298 289.922 671.665 291.515 687.303C294.212 713.765 307.859 723.083 330.398 734.719C337.856 738.568 345.21 740.593 351.77 746.164L352.498 746.791C340.679 752.441 325.068 752.524 312.554 748.927C306.396 747.158 298.592 743.463 292.277 742.121C288.42 741.302 280.654 742.731 276.425 741.586C274.093 740.953 270.466 738.761 269.871 736.685C267.598 728.749 271.931 719.252 270.456 710.687C267.185 691.704 257.877 675.367 254.678 656.273C252.667 644.27 256.623 639.766 257.522 628.878C258.037 622.632 254.303 610.641 253.845 603.844C253.386 597.023 254.575 589.453 253.796 582.8C250.879 557.852 235.433 535.269 244.603 510.522C257.948 504.77 260.642 502.675 267.595 490.708C264.983 493.085 262.094 495.723 259.364 497.831C248.915 505.901 240.932 506.174 238.257 520.364C235.482 535.09 228.916 551.777 221.08 564.552C216.334 572.289 211.089 577.782 207.08 586.425C210.126 582.939 213.213 579.489 216.341 576.077C209.396 594.323 199.811 611.875 192.307 629.843C187.724 640.818 185.92 654.651 181.731 666.101C176.984 679.076 171.901 692.832 170.444 706.594C169.63 714.277 172.694 723.319 173.312 731.005C172.917 736.988 174.909 745.2 174.821 750.738C174.664 760.648 189.704 783.416 184.537 790.678C178.355 799.365 156.033 792.231 148.958 786.919C135.961 777.167 145.302 758.795 145.395 745.655C145.55 737.468 144.675 730.939 143.676 722.871C146.363 728.7 147.71 731.515 151.22 736.949Z" fill="#FAF9F7"/>
<path d="M289.241 604.522C290.479 604.893 289.861 604.801 291.092 604.811C292.676 607.566 292.087 608.522 291.684 612.165L291.449 618.956L288.744 620.201C286.131 612.879 287.094 612.072 289.241 604.522Z" fill="#141212"/>
<path d="M291.449 618.956C289.367 615.814 288.05 610.324 290.423 607.072C291.701 608.222 291.452 610.015 291.684 612.165L291.449 618.956Z" fill="#FAF9F7"/>
<path d="M199.282 591.79C199.644 592.187 199.993 592.867 199.939 593.36C198.676 605.016 198.397 610.022 191.605 619.07C188.614 612.293 192.818 607.535 195.718 601.306C197.243 598.032 198.215 595.211 199.282 591.79Z" fill="#020200"/>
<path d="M180.935 597.612C181.534 598.83 180.46 604.744 180.341 607.149L180.647 606.891C180.841 612.617 180.593 612.767 177.962 617.906L177.311 618.14C175.023 611.626 175.745 613.166 177.949 606.569C179.148 602.975 178.427 601.274 180.935 597.612Z" fill="#141212"/>
<path d="M277.787 597.734C279.28 599.234 277.653 614.046 277.986 619.113C273.149 615.154 276.572 602.902 277.787 597.734Z" fill="#020200"/>
<path d="M275.499 589.415C276.829 594.01 274.939 601.473 272.56 605.603C271.504 598.99 273.045 595.441 275.499 589.415Z" fill="#020200"/>
<path d="M203.062 579.82C204.209 582.248 198.062 590.117 197.001 595.971L196.07 595.014C195.561 590.12 200.305 584.123 203.062 579.82Z" fill="#141212"/>
<path d="M168.739 298.001C189.943 296.402 221.642 310.689 238.015 323.477C265.23 344.732 262.81 359.816 283.02 321.024C287.71 318.175 290.49 317.128 295.66 315.346C297.734 316.227 304.524 319.155 306.047 320.188C324.84 332.94 318.927 380.652 319.769 400.69C320.367 414.922 322.41 424.87 325.284 438.432C310.905 437.348 306.11 440.04 293.723 446.924C290.497 435.607 290.208 417.998 293.709 406.117C294.795 404.404 296.914 401.073 298.106 399.664C307.009 389.148 305.218 378.829 306.262 366.356C307.255 354.477 314.222 344.87 306.256 332.822C301.8 326.084 303.043 326.474 294.736 324.173C294.902 325.99 301.243 331.392 303.3 334.673C313.455 350.872 301.027 360.238 298.756 371.113C300.06 370.268 300.595 369.717 301.744 368.7L302.404 369.483C303.083 379.16 302.735 384.311 298.641 393.003C293.14 400.036 291.729 402.139 288.717 410.522C258.872 401.171 221.359 396.565 191.892 409.212C187.139 398.945 182.849 395.042 175.579 386.514C181.078 371.209 182.165 366.011 183.917 349.804C200.804 357.758 204.1 360.171 224.263 359.994C214.907 356.005 204.714 356.073 195.799 351.021C190.277 347.892 185.101 343.934 179.977 340.183C180.029 344.547 180.091 349.32 179.944 353.653C179.395 369.875 171.023 392.169 158.858 403.433C159.862 411.145 162.573 417.844 163.669 427.021C151.328 421.572 137.236 420.148 126.019 428.836C125.835 417.802 127.666 405.215 127.339 393.649C127.09 384.826 130.715 373.25 129.677 363.589C129.79 358.781 132.316 352.196 132.656 347.74C134.443 324.343 144.158 303.518 168.739 298.001Z" fill="#FAF9F7"/>
<path d="M263.107 368.196C263.623 377.182 252.916 382.23 247.351 387.475C244.997 389.694 242.428 392.773 240.308 395.269C241.253 393.087 242.668 390.367 243.733 388.18C245.13 384.77 245.909 379.78 248.414 377.393L249.2 377.799L248.668 381.1C251.623 380.253 252.622 374.873 256.57 374.342L255.216 377.373L255.645 377.953C258.204 376.003 261.175 371.055 263.107 368.196Z" fill="#020200"/>
<path d="M308.806 417.375L310.157 418.713C311.065 423.824 309.582 429.455 308.483 434.484C306.94 430.9 306.687 426.891 307.767 423.141C308.411 420.867 308.471 420.379 308.731 418.081L308.806 417.375Z" fill="#020200"/>
<path d="M154.904 397.376C155.784 401.367 154.758 409.331 152.405 412.729C150.849 408.58 153.508 401.902 154.904 397.376Z" fill="#141212"/>
<path d="M264.347 358.239C265.657 359.456 265.157 358.696 265.476 360.81C264.496 363.62 263.117 364.637 261.021 366.76L260.579 366.371C260.58 364.494 263.317 360.105 264.347 358.239Z" fill="#020200"/>
<path d="M170.251 285.963C191.851 283.46 204.991 292.712 220.446 306.254C222.852 308.362 224.469 309.74 226.461 312.308C210.892 305.757 199.012 295.872 181.258 295.157C179.885 295.102 175.811 294.813 174.875 294.1C178.27 292.027 193.377 293.744 198.679 293.782C195.511 293.246 192.302 291.487 189.439 290.906C178.187 288.62 167.627 291.57 158.027 296.525C139.62 306.027 127.87 328.254 122.422 347.557C117.006 366.753 112.688 398.914 113.692 419.155C115.411 454.559 124.052 487.969 134.179 521.704C142.392 549.066 149.258 569.852 163.237 594.801C162.191 597.296 161.758 598.345 160.291 600.6C156.644 598.648 152.854 588.842 150.868 584.862C133.774 550.61 122.747 515.561 114.008 478.452C112.489 471.57 111.103 465.836 108.177 459.405C112.927 499.227 129.3 546.334 146.272 582.657C149.121 588.754 154.028 598.969 157.617 604.107C155.661 608.258 154.416 610.301 151.9 614.173C149.144 610.825 145.838 604.982 143.755 601.106C109.561 537.494 82.1818 429.95 103.136 359.933C102.044 376.067 96.836 407.24 102.221 422.603C102.604 418.066 102.742 412.76 102.71 408.203C102.375 360.856 116.339 299.12 170.251 285.963Z" fill="#F9F900"/>
<path d="M230.307 404.786C245.618 403.478 253.805 404.957 269.001 407.685C268.257 411.594 268.796 427.838 268.008 435.303C259.256 433.787 250.211 433.192 241.341 432.958C228.211 433.385 218.512 434.11 205.553 436.167C205.7 432.416 205.493 428.596 205.577 424.928C205.688 420.116 202.378 411.67 204.927 408.043C208.262 406.634 225.484 405.308 230.307 404.786Z" fill="#D42B1D"/>
<path d="M394.375 592.297C374.618 587.519 355.222 579.313 334.862 577.195C331.048 576.797 325.631 576.59 322.569 579.251C312.713 587.819 349.383 623.247 346.951 644.763C346.405 649.592 343.436 654.91 339.56 657.853C335.57 660.883 330.587 661.793 325.703 660.988C315.003 659.226 302.582 650.889 296.153 642.271C295.862 641.884 295.613 641.607 295.399 641.178C294.332 639.037 295.103 634.476 295.973 632.381C304.183 638.364 321.259 652.334 332.513 648.976C337.283 647.553 343.502 637.355 341.218 632.373C340.467 633.792 340.22 634.584 338.887 635.49C335.215 627.722 333.373 621.147 328.519 613.623C280.198 538.73 363.434 577.207 397.34 590.816L394.375 592.297Z" fill="#F9F900"/>
<path d="M146.451 480.287C150.369 479.985 155.719 479.965 159.581 480.275C168.049 480.954 184.905 496.461 183.555 505.139C181.447 508.282 178.498 511.768 174.895 513.143L174.101 512.66C174.669 509.423 175.058 505.703 173.471 502.663C170.979 510.579 173.998 512.23 170.133 518.468L168.456 520.162C165.655 520.849 166.765 520.908 164.162 520.148C161.624 517.267 164.827 518.004 163.289 515.107C159.234 516.237 159.451 520.672 154.814 519.851C155.217 517.75 155.692 517.48 154.858 516.135C143.958 522.696 147.559 509.439 146.326 507.484C145.249 509.357 144.781 510.723 142.918 511.575L141.968 510.785C140.011 505.866 137.14 489.555 136.942 484.247C140.588 482.418 142.583 481.628 146.451 480.287Z" fill="#FAF9F7"/>
<path d="M233.273 241.966C241.556 242.816 257.45 247.244 265.508 250.266C269.537 256.172 264.146 272.112 259.586 277.204C255.235 279.505 252.416 280.001 247.703 281.083C237.422 276.04 232.187 273.007 228.527 262.354C229.99 255.176 231.392 249.042 233.273 241.966Z" fill="#E2AB88"/>
<path d="M240.412 245.835L240.855 246.251C241.664 248.187 237.388 263.553 236.501 266.725L235.8 266.413C234.508 262.986 238.728 249.434 240.412 245.835Z" fill="#141212"/>
<path d="M245.773 262.852C249.828 262.135 255.122 263.182 259.087 264.139L259.209 265.25L258.334 265.871C253.813 265.694 249.026 265.739 245.773 262.852Z" fill="#020200"/>
<path d="M235.753 599.528C237.395 599.348 238.759 599.18 240.354 599.704C242.596 600.459 244.458 602.057 245.544 604.159C239.345 607.862 241.279 605.614 237.844 611.471C241.631 628.544 246.326 644.068 241.297 661.614C236.777 677.383 224.689 680.633 210.097 675.756L201.806 672.28C227.797 671.256 235.071 661.033 239.404 636.747C234.976 626.16 216.391 604.16 235.753 599.528Z" fill="#F9F900"/>
<path d="M148.116 425.339L149.576 427.274C151.894 426.217 161.15 426.626 162.617 428.837C164.441 431.586 163.373 442.051 163.121 445.533C162.3 456.837 161.632 466.243 163.01 477.501C151.218 473.771 144.584 475.776 134.653 481.978C129.959 476.244 124.736 437.898 127.16 430.705L128.15 430.278L129.535 432.007C126.598 434.766 127.189 439.852 129.037 442.985C129.809 445.979 130.191 450.04 131.407 452.462C132.584 459.788 133.31 465.366 135.926 472.39C140.102 470.765 156.129 465.489 157.686 463.059C155.093 462.745 154.772 462.742 152.345 463.686L152.137 462.681C156.043 459.473 154.328 448.174 153.546 443.265C152.495 436.67 154.081 431.192 146.567 429.799L147.886 428.853L148.116 425.339Z" fill="#D42B1D"/>
<path d="M190.524 444.451C190.756 444.875 180.699 486.456 179.926 489.856L175.021 485.42C173.629 484.515 170.479 482.507 169.809 481.215C165.661 473.217 173.312 456.633 175.355 447.155C180.217 446.136 185.595 445.312 190.524 444.451Z" fill="#FAF9F7"/>
<path d="M132.039 334.916C130.927 343.804 127.484 350.9 126.18 359.456C125.343 364.944 126.513 373.121 125.917 378.879C125.885 382.071 123.213 387.519 123.346 390.477C123.916 403.12 122.92 415.226 122.162 427.779C121.428 439.946 123.321 453.111 125.335 465.078L124.909 465.934C113.426 431.436 114.629 367.349 132.039 334.916Z" fill="#F9F900"/>
<path d="M231.13 315.239C238.36 314.944 272.605 318.025 280.996 319.061C278.611 322.739 271.819 333.712 268.924 336.093L268.075 334.404C267.267 329.568 264.491 318.529 257.316 323.657C258.237 326.961 261.182 333.729 257.917 335.621C254.923 334.312 244.088 324.18 240.627 321.712C237.746 319.658 233.987 317.278 231.13 315.239Z" fill="#D42B1D"/>
<path d="M272.744 409.203C291.981 411.643 289.108 423.404 287.681 439.338C282.272 437.884 276.891 436.333 271.538 434.685C272.874 426.888 272.868 417.07 272.744 409.203Z" fill="#D42B1D"/>
<path d="M192.158 643.561C200.335 653.015 208.34 659.727 220.31 663.968C219.656 665.359 216.916 666.259 215.181 667.112C201.685 670.584 196.651 669.251 187.57 658.698L192.158 643.561Z" fill="#F9F900"/>
<path d="M129.037 442.985C128.907 438.944 128.261 438.976 130.034 436.062C136.234 432.41 142.272 432.948 149.693 432.441C150.155 438.015 150.602 442.867 150.561 448.478C143.754 449.424 137.876 449.985 131.407 452.463C130.191 450.04 129.809 445.979 129.037 442.985Z" fill="#F9F900"/>
<path d="M272.313 295.021C280.106 294.432 291.212 299.109 291.471 308.135C291.566 311.428 288.736 313.373 286.463 315.384C283.037 316.291 279.598 315.993 276.971 313.379C277.843 312.026 278.734 310.816 279.678 309.518C279.779 304.091 271.117 300.146 272.313 295.021Z" fill="#F9F900"/>
<path d="M133.952 453.325C137.188 452.827 148.437 450.784 150.74 451.971C147.326 457.05 146.306 458.931 152.137 462.682L152.345 463.686C150.591 464.79 140.177 467.899 137.325 468.886C135.031 462.745 134.82 459.747 133.952 453.325Z" fill="#F9F900"/>
<path d="M166.899 397.428C169.357 400.041 171.088 430.336 170.032 435.316C168.407 437.259 169.102 436.994 167.015 437.588C169.047 431.109 163.558 411.515 161.827 403.82C163.421 401.63 165.186 399.53 166.899 397.428Z" fill="#FAF9F7"/>
<path d="M198.536 408.649L199.336 408.953C201.844 412.291 202.138 431.082 201.959 435.827C201.031 437.822 198.783 438.522 196.654 439.577C195.166 436.448 196.869 432.038 196.476 428.437C195.877 422.961 195.187 417.385 194.561 411.913C195.497 409.942 196.384 409.92 198.536 408.649Z" fill="#D42B1D"/>
<path d="M242.451 227.71C249.562 228.544 254.506 228.366 253.598 236.666C250.31 237.285 245.699 237.263 243.115 234.968C241.558 232.459 242.127 230.732 242.451 227.71Z" fill="#FAF9F7"/>
<path d="M146.566 429.799C142.716 430.987 135.479 433.032 132.139 430.589C132.319 424.661 143.941 425.143 148.116 425.339L147.886 428.853L146.566 429.799Z" fill="#DE3519"/>
<path d="M328.367 450.749C331.204 450.87 333.63 450.614 335.879 452.154C337.318 454.329 336.839 456.204 336.683 458.921C333.99 459.012 331.64 459.426 329.373 458.174C327.812 456.066 328.295 453.552 328.367 450.749Z" fill="#F9F900"/>
<path d="M235.305 286.922C239.808 291.093 241.979 298.978 244.013 304.804C240.096 301.877 236.5 291.64 235.305 286.922Z" fill="#D42B1D"/>
<path d="M262.992 234.239C265.36 234.58 265.499 234.546 267.426 235.864C268.021 238.566 267.612 238.4 266.735 241.222C264.925 241.517 264.85 241.677 263.143 240.899C261.927 238.762 262.607 236.815 262.992 234.239Z" fill="#E2AB88"/>
<path d="M125.335 465.078C126.391 468.621 129.788 481.504 131.598 483.84L129.398 486.273C128.27 479.412 126.24 472.826 124.91 465.934L125.335 465.078Z" fill="#DAB825" fill-opacity="0.0745098"/>
<path d="M397.34 590.816C400.629 591.962 402.636 592.842 405.791 594.336L394.375 592.298L397.34 590.816Z" fill="#F9F900"/>
<path d="M1079.89 312.889C1087.07 311.763 1114.57 311.729 1121.98 312.757C1123.99 314.404 1126.04 316.514 1127.93 318.345C1128.14 322.952 1128.05 328.029 1128.06 332.676C1145.63 334.755 1155.98 325.516 1169.98 339.835C1180.04 327.076 1190.07 332.378 1203.52 332.732C1210.36 332.912 1218.04 332.498 1225.02 332.528C1230.09 335.34 1235.42 339.357 1235.66 345.59C1236.41 369.512 1236.02 393.558 1236.02 417.508C1236.03 430.981 1237.75 442.494 1228.88 453.577C1210.7 467.166 1169.89 464.434 1165.88 438.118L1045.46 438.307C1021.55 438.386 997.17 438.605 973.253 438.201C971.753 438.175 970.41 437.816 969.3 436.891C968.903 436.565 966.473 435.433 966.308 435.47C963.495 436.099 960.173 437.024 957.33 437.54C949.725 438.923 938.003 440.116 930.458 438.047C926.295 436.906 919.373 432.582 915.743 430.371C915.818 430.417 909.593 435.963 908.115 436.706C903.24 439.148 897.15 439.667 891.765 440.457C891.945 444.853 892.748 454.874 891.533 458.43C886.898 461.898 859.2 460.718 854.145 456.077C849.953 452.224 850.53 443.537 850.493 438.363C843.885 438.853 835.328 438.343 828.533 438.112C823.238 434.565 821.798 431.557 821.723 425.271C821.625 417.365 821.91 409.244 822 401.345C814.635 404.493 811.808 404.878 804.068 405.728C804.248 416.53 804.233 427.334 804.023 438.136C794.61 438.518 774.105 438.887 765.285 437.932C762.533 434.944 761.25 433.45 758.94 430.127C757.463 399.493 759.083 346.776 758.79 314.323C759.113 313.863 759.443 313.404 759.765 312.944L763.103 312.39C776.753 311.664 791.085 312.184 804.758 312.487C807.84 312.556 809.813 312.968 812.588 314.221C825.39 320.001 819.09 318.145 823.215 312.921C833.16 311.46 849.645 312.084 860.175 312.187C869.063 318.4 867.233 322.249 866.963 332.311C870.293 332.288 873.765 332.657 877.103 332.445C890.948 331.564 901.545 328.211 911.498 339.953C926.318 329.222 944.04 328.621 959.955 337.493L959.985 312.911C981.015 311.502 1003.28 312.266 1024.42 312.258C1030.01 312.256 1031 314.022 1034.45 317.995C1034.86 322.439 1034.72 327.916 1034.72 332.454C1053.51 333.269 1063.88 327.696 1080.01 336.057L1079.89 312.889Z" fill="#001B82"/>
<path d="M1183.33 339.181C1186.69 338.886 1190.95 339.073 1194.39 339.133C1198.23 341.394 1199.85 345.042 1202.95 345.574C1202.96 343.307 1203 342.411 1203.4 340.187C1205.92 339.174 1218.75 339.529 1222.53 339.505C1222.29 357.036 1224.85 427.778 1219.56 438.495C1217.5 442.673 1213.43 445.346 1209.09 446.697C1199.77 449.593 1187.42 448.802 1178.76 444.322C1174.39 439.217 1174.34 435.342 1173.3 428.83C1183.18 431.235 1185.11 429.624 1193.11 430.839L1194.74 433.552C1204.48 439.889 1203 421.078 1202.92 416.269C1200.94 418.677 1198.57 421.538 1195.89 423.164C1192.3 425.34 1186.86 425.845 1182.85 424.586C1179.61 423.566 1177.15 421.23 1175.56 418.271C1171.67 411.026 1171.56 357.613 1174.51 348.357C1176.03 343.58 1179.07 341.321 1183.33 339.181Z" fill="#F9F900"/>
<path d="M1194.59 353.944C1196.72 353.969 1201.31 353.809 1201.4 356.686C1201.73 365.987 1203.8 402.825 1200.89 409.567C1199.31 409.685 1197.85 409.565 1196.27 409.487C1195.42 408.956 1193.94 408.202 1193.79 407.171C1192.67 399.175 1192.26 358.914 1194.59 353.944Z" fill="#001B82"/>
<path d="M768 319.579C812.205 319.81 827.37 312.843 824.243 365.655C822.863 389.037 812.79 392.64 790.733 392.373C790.035 397.272 790.583 419.236 790.62 425.155L767.978 425.145L768 319.579Z" fill="#F9F900"/>
<path d="M790.62 336.032C793.125 336.033 799.38 335.838 800.048 338.86C801.705 346.398 802.365 368.149 799.478 374.684C796.335 375.698 793.815 376.941 790.943 374.87C789.968 368.348 790.568 343.919 790.62 336.032Z" fill="#001B82"/>
<path d="M887.738 338.335C899.663 337.773 906.03 340.532 906.615 353.7C907.328 369.447 906.893 385.288 907.035 401.056C907.103 408.377 906.488 415.951 901.613 421.818C894.698 430.143 884.415 426.605 877.568 420.49C877.763 429.467 877.628 438.848 877.628 447.857L857.993 447.839L858.03 339.188C862.013 339.183 873.533 338.25 876.225 339.972L876.863 343.689L878.37 343.802C882.345 341.676 882.128 340.292 886.905 338.619L887.738 338.335Z" fill="#F9F900"/>
<path d="M881.16 352.912C883.522 353.215 884.085 353.101 885.892 354.482C886.95 356.793 887.175 360.081 887.107 362.887C886.77 377.679 888.15 393.959 886.245 408.494C886.057 409.878 884.497 411.064 883.47 412.116C881.265 411.217 880.792 410.953 878.857 409.572C878.002 407.631 877.815 404.588 877.837 402.308C878.002 387.405 877.072 371.788 878.46 357.006C878.587 355.63 880.237 353.876 881.16 352.912Z" fill="#001B82"/>
<path d="M1057.91 338.393C1084.19 337.421 1079.09 360.674 1079.06 379.957C1078.94 394.989 1078.97 410.022 1079.16 425.054L1056.89 425.102L1057.01 385.429C1057.02 378.269 1058.54 358.662 1052.9 354.156C1049.02 353.512 1047.16 357.253 1046.66 360.65L1046.8 425.076L1025.9 425.12L1026.01 339.25C1031.96 339.116 1037.52 338.939 1043.48 339.255C1046.03 340.774 1043.82 342.969 1045.8 346.503C1051.31 340.87 1050.15 341.134 1057.91 338.393Z" fill="#F9F900"/>
<path d="M1117.29 339.148C1122.32 339.041 1129.42 338.648 1134.22 339.373C1135.13 340.705 1134.93 343.601 1134.97 345.373C1136.41 346.265 1141.04 341.081 1142.95 340.365C1170.85 329.894 1166.9 365.585 1166.89 381.771L1166.94 425.069L1146.29 425.057C1146.55 410.591 1146.61 396.123 1146.47 381.656C1146.55 376.356 1149.44 352.342 1140.72 354.739C1135.62 360.05 1136.98 376.229 1137 383.507L1137.25 425.075L1117.26 425C1117.78 396.981 1117.45 367.258 1117.29 339.148Z" fill="#F9F900"/>
<path d="M934.912 338.604C967.2 334.135 962.002 364.577 961.71 385.349C952.11 385.438 942.517 385.381 932.917 385.179C932.955 391.517 931.785 405.461 934.477 410.259C936.99 412.166 937.702 412.961 940.432 411.116C943.432 406.096 942.63 399.486 942.397 393.705C946.807 393.729 958.275 392.425 961.335 394.317L961.582 396.66C961.657 407.132 962.527 421.741 949.32 424.839C901.755 436.037 915.765 394.38 913.425 365.451C912.075 348.673 918.202 340.254 934.912 338.604Z" fill="#F9F900"/>
<path d="M935.61 351.53C944.527 352.514 942.922 363.135 942.367 370.155L941.13 371.016C938.265 371.142 936.93 371.194 933.997 370.864C931.32 367.156 932.64 355.13 935.61 351.53Z" fill="#001B82"/>
<path d="M968.31 319.679L989.018 319.617C989.318 354.66 988.56 390.114 989.258 425.106L968.243 425.094L968.31 319.679Z" fill="#F9F900"/>
<path d="M1088.32 339.12L1109.82 339.069C1109.62 367.765 1109.61 396.462 1109.79 425.158L1088.21 424.959C1088.58 396.556 1088.3 367.567 1088.32 339.12Z" fill="#F9F900"/>
<path d="M996.578 339.077L1017.11 339.101L1017.08 425.047C1010.51 425.231 1003.19 425.052 996.555 425.028L996.578 339.077Z" fill="#F9F900"/>
<path d="M830.97 339.09L851.175 339.076L851.07 425.07L831.007 425.129L830.97 339.09Z" fill="#F9F900"/>
<path d="M1088.18 319.448L1109.97 319.239C1110.01 323.816 1110.22 328.969 1109.64 333.461L1088.11 333.473L1088.18 319.448Z" fill="#F9F900"/>
<path d="M996.48 319.434L1017.7 319.367L1017.34 333.331C1010.32 333.424 1003.3 333.419 996.292 333.317C996.517 329.012 996.435 323.813 996.48 319.434Z" fill="#F9F900"/>
<path d="M830.992 319.513L851.22 319.475L851.227 333.54L830.925 333.65L830.992 319.513Z" fill="#F9F900"/>
<path d="M843.922 490.139C862.042 488.211 863.325 493.685 875.67 497.591C876.352 495.153 876.615 494.741 877.957 492.582C884.002 489.684 908.04 490.131 914.212 494.616C916.995 498.786 915.982 506.845 915.817 512.095C918.84 511.743 921.87 511.429 924.9 511.155C936.15 510.178 944.482 511.134 953.16 518.433C964.935 510.123 977.475 508.608 991.68 512.47C994.642 513.275 997.567 516.17 1000.38 516.642C1000.62 514.5 1000.5 514.073 1001.8 512.494C1010.41 510.726 1033.75 511.173 1043.48 511.431C1045.22 511.477 1048.9 513.262 1050.56 514.095C1050.61 506.245 1050.61 499.111 1050.23 491.279C1061.32 491.449 1073.59 490.236 1084.45 491.527C1089.59 492.137 1091.41 494.283 1094.06 498.196C1094.2 502.399 1094.08 507.096 1094.07 511.341C1111.03 513.245 1117.99 506.031 1132.45 517.394C1143.19 508.564 1151.63 511.652 1164.37 511.695L1188.22 511.606C1189.6 512.473 1193.71 515.206 1194.16 516.175C1198.1 524.503 1197.08 566.458 1196.44 574.744C1201.23 574.709 1206.01 574.796 1210.79 575.006C1213.87 578.069 1214.68 579.105 1217.14 582.707C1217.31 595.772 1218.18 606.219 1214.59 618.894C1207.89 627.011 1198.02 626.558 1188.58 625.671C1184.18 628.136 1178.78 629.604 1173.78 630.044C1155.83 631.622 1135.36 630.225 1128.99 610.093L1017.34 610.042C1001.71 610.056 985.717 610.547 970.147 610.328C966.975 610.283 962.002 608.286 958.995 607.119C950.16 611.594 935.302 612.887 925.552 610.297C921.705 609.275 917.932 608.229 914.032 607.341C907.267 612.602 891.39 610.135 882.952 609.349C881.235 609.189 879.172 606.795 878.002 605.466C862.665 614.162 839.692 614.029 825.052 603.553C807.525 591.009 812.805 563.719 812.542 544.944C812.145 516.171 807.24 494.585 843.922 490.139Z" fill="#001B82"/>
<path d="M1146.07 518.475C1152.72 517.863 1158.68 516.809 1162.57 522.505C1163.05 523.206 1163.87 523.83 1164.57 524.32C1164.77 522.091 1164.59 521.17 1166.02 519.632C1169.55 518.536 1177.88 519.02 1181.95 519.083C1181.95 535.22 1184.18 600.49 1178.71 610.739C1176.85 614.213 1173.23 616.223 1169.56 617.254C1161.43 619.544 1149.18 618.699 1141.84 614.665C1130.46 602.511 1139.9 596.983 1152.97 601.457C1154.41 601.95 1155.69 606.416 1160.58 607.005C1164.7 604.823 1164.03 594.32 1164 590.143C1158.89 595.227 1149.86 599.26 1143.25 595.448C1129.06 587.261 1138.7 547.358 1135.7 533.104C1134.35 526.687 1141.06 520.269 1146.07 518.475Z" fill="#F9F900"/>
<path d="M1155.56 533.188C1157.44 533.043 1158.34 533.182 1160.23 533.379C1161.08 534.047 1162.27 534.734 1162.45 535.636C1163.94 542.951 1164.05 576.987 1161.84 582.085C1160.06 582.216 1159.01 582.1 1157.27 581.963C1156.34 581.255 1155.31 580.744 1155.08 579.721C1153.51 572.547 1153.38 538.133 1155.56 533.188Z" fill="#001B82"/>
<path d="M845.145 497.654C880.14 498.164 875.857 512.823 875.7 542.149C868.83 541.825 861.105 541.911 854.167 541.842C854.167 536.866 854.235 531.803 854.115 526.832C853.98 521.274 855.51 511.925 847.665 511.572C840 516.212 842.092 572.469 844.74 581.355C846.09 583.074 846.622 583.09 848.76 583.917C856.537 582.943 854.632 565.97 854.55 560.235L854.632 558.953C858.007 556.849 871.26 557.747 875.842 557.867C874.447 575.27 879.15 595.787 854.902 598.461C816.712 602.927 820.492 577.084 821.16 548.992C821.722 525.444 814.402 500.811 845.145 497.654Z" fill="#F9F900"/>
<path d="M970.117 518.547C982.38 517.659 998.355 518.31 1000.24 532.981C1002.94 553.985 999.607 576.447 1002.37 597.817C996.997 597.558 989.325 598.916 985.14 597.135C982.92 594.771 983.632 595.821 982.732 592.205C980.01 590.828 970.822 607.936 957.69 592.921C953.895 584.223 953.19 570.165 958.537 561.858C964.072 553.261 973.11 551.323 982.395 549.304C982.53 543.562 983.872 534.064 977.722 531.069L976.177 531.71C972.337 536.72 973.23 540.553 973.245 546.933L955.965 547.05C955.995 533.27 954.622 523.154 970.117 518.547Z" fill="#F9F900"/>
<path d="M981.578 561.068L982.425 562.243C982.853 568.696 984.038 576.359 980.895 582.059C978.413 583.981 979.448 583.39 975.66 583.754C972.113 579.016 972.09 571.129 975.21 566.279C976.628 564.081 979.418 562.444 981.578 561.068Z" fill="#001B82"/>
<path d="M1111.05 518.532C1112.35 518.421 1113.65 518.343 1114.95 518.297C1133.7 517.738 1129.67 542.599 1129.64 555.466C1129.52 569.571 1129.55 583.677 1129.74 597.78C1123.86 597.547 1116.77 597.747 1110.8 597.769L1110.95 561.316C1110.98 553.997 1112.66 537.532 1107.05 533.017L1105.22 533.36C1103.22 535.177 1102.22 535.787 1101.77 538.445L1101.79 597.696L1083.24 597.629L1083.22 519.315C1087.89 519.163 1095.23 518.697 1099.66 519.256C1101.21 520.779 1100.53 521.694 1100.92 524.689C1104.89 523.985 1104.04 521.234 1110.26 518.832L1111.05 518.532Z" fill="#F9F900"/>
<path d="M922.995 518.545C956.917 516.12 951.87 535.198 951.802 561.852L925.125 561.911C924.922 567.697 923.385 583.966 931.072 585.474C935.212 582.327 934.582 573.377 934.507 568.621C938.25 568.563 949.147 567.979 951.72 569.586C951.862 577.792 952.132 594.468 941.22 597.041C913.837 603.55 904.665 593.02 907.365 566.295C909.15 548.612 900.022 525.028 922.995 518.545Z" fill="#F9F900"/>
<path d="M927.802 530.851C929.242 530.983 931.327 531.264 932.31 532.42C934.95 535.525 935.76 546.437 932.91 548.992C930.622 549.024 928.522 548.939 926.242 548.846C922.897 545.313 924.862 534.648 927.802 530.851Z" fill="#001B82"/>
<path d="M1033.69 518.53C1050.95 517.092 1052.49 525.009 1052.63 540.002C1052.8 559.255 1052.13 578.51 1053.03 597.744L1034.96 597.746C1034.98 588.499 1037.1 538.991 1032.62 534.326C1031.59 533.254 1031.12 533.359 1029.73 533.299C1027.55 534.697 1027.51 534.926 1026.1 537.189C1025.54 556.426 1026.02 578.321 1026.02 597.756C1020.16 597.644 1013.88 597.776 1007.99 597.793C1007.18 572.813 1007.79 544.539 1007.64 519.232C1011 519.136 1021.14 518.233 1023.62 520.64C1024.28 521.288 1023.04 522.707 1025.45 524.286L1026.08 523.677C1029.4 520.544 1029.48 520.516 1033.69 518.53Z" fill="#F9F900"/>
<path d="M881.977 498.912L901.635 498.858L901.59 597.695L882.007 597.737C881.595 565.09 881.977 531.625 881.977 498.912Z" fill="#F9F900"/>
<path d="M1059 519.178L1077.33 519.246C1077.04 543.265 1076.48 574.094 1077.7 597.716L1059.02 597.73L1059 519.178Z" fill="#F9F900"/>
<path d="M1190.05 581.295L1205.09 581.256C1205.39 593.772 1207.77 603.285 1197.98 612.279C1197.44 612.489 1196.9 612.69 1196.35 612.885C1193.64 613.867 1192.03 614.462 1189.55 613.295C1188.42 608.595 1193.88 605.089 1195.87 599.469L1195.16 598.25C1193.28 598.221 1192.05 598.412 1190.45 597.45C1189.37 593.913 1189.94 585.373 1190.05 581.295Z" fill="#F9F900"/>
<path d="M1059.01 498.093L1079.2 498.084L1079.05 513.023L1058.98 513.046L1059.01 498.093Z" fill="#F9F900"/>
<path d="M708.049 491.5C713.634 491.139 719.768 491.316 725.339 491.038C745.806 490.021 750.203 490.177 750.203 511.596C759.053 512.32 766.748 511.839 775.508 510.974C787.898 509.749 801.773 522.272 803.385 534.211C806.22 555.196 804.885 578.886 804.795 600.348L804.72 609.943L703.126 609.927C681.758 609.954 679.565 616.258 660.392 602.96L656.417 609.921C646.925 609.976 636.198 610.944 626.893 609.744C622.549 609.183 621.376 607.452 619.1 604.152C604.085 613.395 586.635 609.439 569.754 610.221C565.108 610.439 554.481 607.125 554.045 601.572C551.844 573.598 553.715 544.825 553.106 516.739C552.934 508.761 552.67 499.125 553.619 491.578C563.111 490.927 572.963 491.362 582.464 491.168C602.051 490.768 614.498 494.553 624.682 512.073C630.742 511.974 639.563 513.455 644.21 513.259C651.365 512.958 655.653 509.348 662.948 514.945C663.308 515.221 672.5 511.416 675.92 511.061C688.373 509.77 697.843 510.684 708.101 518.314C707.806 509.55 707.999 500.305 708.049 491.5Z" fill="#001B82"/>
<path d="M563.112 498.971C600.134 498.472 618.911 493.861 616.184 539.683C615.347 553.734 617.759 570.14 614.697 584.165C614.008 587.323 611.852 589.52 609.738 591.767C598.286 600.447 578.087 597.847 563.07 597.766C562.129 567.095 562.862 529.935 563.112 498.971Z" fill="#F9F900"/>
<path d="M584.011 513.92C587.795 513.903 590.415 513.357 593.094 516.374C595.233 522.716 595.019 572.678 593.675 580.76C591.122 581.483 587.453 582.347 584.888 581.833C583.549 579.469 584.012 521.392 584.011 513.92Z" fill="#001B82"/>
<path d="M676.159 518.541C700.139 516.614 709.162 521.907 708.808 546.669C708.58 562.558 707.659 582.297 709.847 597.791C703.592 597.604 697.936 598.257 691.534 597.834C689.623 596.609 689.743 595.266 688.894 592.639C682.324 593.157 676.221 607.676 661.891 592.472C656.647 582.778 657.142 561.337 668.295 555.413C674.563 552.084 681.521 550.444 688.358 548.667C688.39 543.24 689.593 532.889 683.111 530.816C677.926 533.059 678.694 542.338 678.785 547.036L660.385 547.136C660.592 532.067 659.509 523.624 676.159 518.541Z" fill="#F9F900"/>
<path d="M686.662 560.937L687.715 561.031C689.556 564.224 689.141 578.108 686.951 581.596C685.546 583.836 683.227 583.963 680.93 584.576C674.441 576.572 677.623 565.828 686.662 560.937Z" fill="#001B82"/>
<path d="M771.038 518.526C772.32 518.415 773.603 518.344 774.893 518.314C795.233 517.989 791.288 543.705 791.235 557.726L791.07 597.727L771.84 597.708L772.028 564.843C772.073 557.393 773.603 538.927 769.245 534.513C766.148 533.902 767.438 533.857 764.258 534.932C762.36 537.237 762.833 537.721 762.39 541L762.495 597.761L742.943 597.739L742.942 519.295C748.051 519.348 754.755 518.146 759.585 519.98C760.89 520.475 761.1 522.516 761.385 523.85L762.93 523.634C765.893 521.111 766.68 520.413 770.258 518.858L771.038 518.526Z" fill="#F9F900"/>
<path d="M653.345 518.172C654.124 518.245 654.793 518.565 655.571 518.839C656.946 522.604 656.407 535.195 656.338 539.782C642.065 540.368 640.353 542.748 640.411 557.125C640.465 570.602 640.524 584.195 640.507 597.677C636.433 597.651 626.777 598.939 623.314 596.903C622.447 596.392 622.651 594.913 622.549 593.582L622.528 519.285L639.979 519.121L639.969 529.928C644.161 522.545 645.586 521.46 653.345 518.172Z" fill="#F9F900"/>
<path d="M716.061 519.237L736.058 519.29L735.942 597.688L716.078 597.733L716.061 519.237Z" fill="#F9F900"/>
<path d="M716.202 498.106L736.375 498.137L736.424 513.012L716.155 512.997L716.202 498.106Z" fill="#F9F900"/>
<path d="M1356.83 490.191C1358.96 489.768 1362.1 489.976 1364.33 490.006C1387.76 490.25 1405.22 506.602 1403.69 530.574C1402.76 544.947 1408.12 549.482 1391.89 554.094C1403.96 557.602 1405.85 558.779 1406.44 571.377C1407.38 591.491 1402.25 608.452 1379.5 611.204C1367.46 612.661 1357.09 611.668 1345.45 608.356C1344.7 608.14 1332.23 610.685 1330 610.061C1299.3 610.102 1268.61 610.073 1237.92 610.06C1232.59 607.357 1232.01 606.472 1228.73 601.723C1227.71 590.353 1228.08 575.468 1228.15 563.89L1228.03 491.428C1240.28 491.316 1253.32 491.025 1265.51 491.573C1268.39 493.843 1270.6 495.638 1272.44 498.888C1278.66 509.82 1271.42 567.962 1276.73 575.424C1279.28 567.587 1277.84 504.483 1278.02 491.457C1288.46 491.15 1303.26 490.978 1313.53 491.682C1324.6 499.904 1322.44 508.354 1322.22 520.677C1325.87 499.759 1335.65 492.225 1356.83 490.191Z" fill="#001B82"/>
<path d="M1352.08 498.265C1356.43 497.914 1360.81 497.749 1365.17 497.77C1393.99 497.973 1391.31 520.915 1391.05 542.024L1367.2 541.885C1367.31 534.915 1369.27 516.179 1363.9 511.875C1363.07 511.761 1362.07 511.451 1361.28 511.736C1359.36 512.422 1358.01 513.375 1357.24 515.336C1355.31 520.288 1355.56 575.588 1357.57 580.197C1358.11 581.452 1358.83 582.406 1360.21 582.792C1362.25 583.358 1364.11 582.993 1365.91 582.004C1369.48 578.133 1368.19 568.948 1368.1 563.2L1368.42 561.004C1371.65 559.167 1387.21 559.979 1392 560.065C1392 568.517 1392.91 580.337 1388.73 587.799C1381.45 600.762 1356.15 601.669 1344.51 595.503C1330.86 588.371 1331.24 567.849 1332.35 554.186C1334.19 531.579 1323.82 505.463 1352.08 498.265Z" fill="#F9F900"/>
<path d="M1237.45 498.867L1260.04 498.8L1260.07 582.317C1266.51 582.508 1273.53 582.357 1280.02 582.333L1280.11 597.747L1237.36 597.814L1237.45 498.867Z" fill="#F9F900"/>
<path d="M1286.72 498.916L1308.59 498.866L1308.5 582.834C1314.53 582.56 1321.64 582.705 1327.75 582.689C1327.82 585.144 1327.86 587.6 1327.88 590.055C1327.9 592.628 1328.21 596.117 1326.62 597.731C1313.42 597.627 1300.05 597.778 1286.84 597.815C1286.59 564.85 1286.55 531.882 1286.72 498.916Z" fill="#F9F900"/>
<path d="M1368.41 312.394C1375 312.169 1399.24 311.347 1404.25 313.405C1408.69 319.57 1407.24 354.34 1407.23 363.792C1407.33 388.549 1407.27 413.307 1407.05 438.063C1398.59 438.67 1389.14 438.146 1380.48 438.509C1373.6 438.797 1365.75 438.852 1358.81 438.826C1356.86 438.819 1350 435.221 1347.96 435.304C1345.63 435.4 1342.86 438.41 1339.49 438.425C1314.56 438.538 1291.45 437.333 1266.51 439.025C1240.88 438.291 1237.65 412.254 1240.07 392.264C1240.81 386.13 1243.08 382.707 1246.81 378.057C1242.74 374.935 1241.25 372.813 1240.7 367.705C1237.73 340.303 1258.65 330.18 1282.87 335.322C1285.06 335.786 1288.94 338.708 1290.32 339.271C1292.36 340.104 1295.35 333.862 1299.12 334.912C1302.97 334.763 1307.96 334.492 1311.74 334.501C1324.33 334.534 1331.11 331.352 1341.33 339.415C1350.01 333.752 1353.04 333.477 1363.02 333.016C1363.04 326.546 1361.59 320.571 1363.49 314.495C1365.59 312.358 1364.69 313.042 1368.41 312.394Z" fill="#001B82"/>
<path d="M1371.62 319.682C1377.87 319.505 1384.82 319.656 1391.12 319.66L1391.08 425.117C1386.84 425.18 1376.47 426.13 1373.21 424.145C1370.93 422.754 1372.64 421.419 1370.96 420.17C1370.74 420.633 1370.52 421.094 1370.3 421.551C1368.66 424.821 1368.29 424.685 1364.77 425.805L1363.92 426.068C1361.71 426.166 1359.48 426.242 1357.27 426.173C1353.7 426.064 1350.65 425.114 1348.28 422.278C1344.04 417.21 1345.36 365.555 1345.8 355.934C1346 351.421 1346.12 346.709 1349.86 343.586C1353.04 340.937 1356.86 340.365 1360.85 340.724C1365.84 341.174 1368.65 343.201 1371.77 346.859L1371.62 319.682Z" fill="#F9F900"/>
<path d="M1364.54 354.429C1368.04 354.607 1371.28 354.747 1371.47 359.289C1372.12 375.26 1372.07 391.569 1371.44 407.538C1371.4 408.572 1370.1 410.43 1369.46 411.269C1365.89 411.073 1363.48 410.754 1363.2 406.726C1362.67 399.339 1362.57 391.43 1362.81 383.998C1363.07 375.781 1361.82 361.86 1364.54 354.429Z" fill="#001B82"/>
<path d="M1267.69 341.546C1288.6 340.63 1291.61 347.229 1291.7 366.654C1291.78 385.928 1291.03 405.953 1292.36 425.169C1288 425.234 1280.18 425.64 1276.21 424.719C1274.73 422.685 1275.04 421.411 1274.71 418.613C1266.68 427.424 1255.6 431.763 1249.1 418.436C1247.39 409.953 1246.49 392.659 1251.39 385.373C1257.14 376.82 1264.63 375.256 1273.75 373.088C1273.94 367.608 1275.3 356.861 1269.19 354.053C1264.54 356.107 1265.19 365.54 1265.25 369.847L1248.86 370.031C1248.61 353.736 1249.66 344.064 1267.69 341.546Z" fill="#F9F900"/>
<path d="M1273.33 386.303C1275.1 388.99 1275.17 406.109 1272.5 409.412C1271.02 411.245 1269.19 411.164 1267.15 411.519C1263.72 406.146 1263.94 396.379 1267.26 391.037C1268.48 389.077 1271.38 387.471 1273.33 386.303Z" fill="#001B82"/>
<path d="M1326.44 340.814C1334.98 341.37 1338.36 344.993 1339.3 353.487C1340.27 362.135 1339.9 370.995 1339.87 379.701C1339.71 394.824 1339.74 409.948 1339.96 425.071L1322.91 425.084L1323.04 384.436C1323.06 378.843 1324.39 359.428 1320.22 355.94C1315.58 355.694 1314.73 359.492 1314.4 363.165C1314.26 383.846 1314.34 404.528 1314.61 425.208L1298.02 425.04C1297.3 398.318 1297.89 369.074 1297.96 342.157C1302.58 342.057 1307.19 342.022 1311.8 342.054C1314.5 343.816 1312 344.002 1313.68 346.919C1318.22 343.605 1320.05 341.7 1325.59 340.928L1326.44 340.814Z" fill="#F9F900"/>
</svg>
