<svg width="458" height="458" viewBox="0 0 458 458" fill="none" xmlns="http://www.w3.org/2000/svg">
<path d="M225.092 0.0297689C351.684 -1.9923 455.84 99.2531 457.47 225.917C459.1 352.58 357.584 456.475 230.982 457.715C104.933 458.948 1.64213 357.921 0.0193492 231.81C-1.60344 105.7 99.0527 2.04377 225.092 0.0297689Z" fill="#001B82"/>
<path d="M141.104 292.278C141.338 271.705 143.392 250.519 143.963 229.882C144.287 218.185 144.642 203.472 147.817 192.458C151.183 180.96 157.242 170.433 165.493 161.749C179.763 146.538 199.523 137.669 220.367 137.119C240.729 136.612 260.448 144.274 275.131 158.399C285.114 167.812 292.471 179.666 296.474 192.793C300.679 207.087 301.552 273.253 302.103 291.696C287.608 294.546 275.054 296.488 260.477 298.496C237.134 301.072 215.548 302.604 192.142 299.992C190.226 299.778 187.656 299.558 185.739 299.554C170.741 297.927 155.842 295.498 141.104 292.278Z" fill="#FFFF4B"/>
<path d="M185.739 299.554C185.642 273.854 187.019 245.823 188.133 220.096C189.88 179.765 248.187 174.473 257.401 214.15C259.6 223.62 258.972 234.512 259.275 244.332C259.981 262.379 260.382 280.436 260.477 298.496C237.135 301.072 215.548 302.604 192.142 299.992C190.226 299.778 187.656 299.558 185.739 299.554Z" fill="#001B82"/>
<path d="M196.611 299.736C196.544 281.984 197.502 262.623 198.277 244.852C199.492 216.995 240.058 213.34 246.468 240.745C247.998 247.286 247.561 254.81 247.772 261.593C248.263 274.058 248.542 286.53 248.608 299.005C232.368 300.784 217.35 301.842 201.066 300.038C199.733 299.89 197.945 299.738 196.611 299.736Z" fill="white"/>
<path d="M198.375 157.535C201.773 159.472 204.219 162.905 203.477 166.87C196.276 174.56 186.421 176.976 179.355 188.353C174.852 195.604 175.007 203.533 169.092 206.3C161.063 204.476 159.804 200.742 163.005 192.882C169.597 176.842 182.335 164.111 198.375 157.535Z" fill="white"/>
<path d="M323.409 315.636C331.24 314.747 357.174 315.486 366.123 315.523C365.318 321.217 365.231 327.652 365.016 333.45C350.68 337.942 317.481 353.819 303.258 360.511L298.143 381.083L277.222 393.828C233.168 387.397 189.162 380.632 145.21 373.536L93.1953 365.327C94.0039 356.457 95.8758 345.412 97.1519 336.438C106.362 332.42 119.545 327.936 129.267 324.217C155.574 329.6 183.7 334.529 210.785 335.442C246.638 336.651 285.213 328.629 319.688 319.098C320.938 318.753 322.643 316.682 323.409 315.636Z" fill="#FFFF4B"/>
<path d="M311.766 299.783C313.38 300.947 312.874 308.734 312.869 310.989C302.606 312.798 283.525 317.779 271.975 320.154C219.726 330.901 183.465 324.363 131.631 315.02C129.778 313.017 130.561 303.101 130.626 299.786C187.237 317.299 254.779 312.413 311.766 299.783Z" fill="white"/>
<path d="M102.838 102.503C106.238 105.539 136.762 155.916 140.165 162.349C136.034 160.323 130.305 156.529 126.254 154.008L82.1694 125.134C89.0056 117.542 95.895 109.998 102.838 102.503Z" fill="#FFFF4B"/>
<path d="M350.358 126.693C355.5 132.932 362.481 143.931 367.195 150.926L323.147 168.875C318.183 171.01 312.326 173.103 307.224 175.061C316.072 162.753 339.426 138.182 350.358 126.693Z" fill="#FFFF4B"/>
<path d="M253.142 64.3577C261.401 66.9742 272.28 69.5495 280.827 71.8386C274.803 83.6847 268.701 95.4904 262.523 107.257C259.896 112.686 255.282 121.464 251.888 126.182C250.843 112.461 252.377 79.0025 253.142 64.3577Z" fill="#FFFF4B"/>
<path d="M161.187 69.0627C169.616 67.0652 180.274 63.6856 188.783 61.2588C189.7 74.5171 190.529 87.7806 191.273 101.049C191.809 107.057 192.359 116.958 191.871 122.75C183.926 111.514 168.054 82.0205 161.187 69.0627Z" fill="#FFFF4B"/>
<path d="M68.3584 194.077C78.736 197.267 111.468 208.32 120.615 212.512L120.616 214.084C118.926 215.749 115.992 215.65 113.529 215.864C97.7088 218.125 81.876 220.29 66.0303 222.361C66.3261 213.362 67.4193 203.035 68.3584 194.077Z" fill="#FFFF4B"/>
<path d="M363.702 204.623L364.071 204.849C365.217 206.749 364.267 224.194 364.158 227.647L331.369 218.173L318.57 214.291C331.551 210.61 350.251 207.155 363.702 204.623Z" fill="#FFFF4B"/>
</svg>
