<svg width="455" height="455" viewBox="0 0 455 455" fill="none" xmlns="http://www.w3.org/2000/svg">
<path d="M209.675 0.685536C334.919 -8.98926 444.233 84.8777 453.673 210.204C463.113 335.53 369.1 444.729 243.816 453.942C118.864 463.132 10.0678 369.361 0.652761 244.361C-8.76149 119.36 84.7602 10.3353 209.675 0.685536Z" fill="#001B82"/>
<path d="M197.341 212.727C201.589 213.567 205.814 214.541 210.006 215.644C232.537 221.624 248.08 229.824 259.922 250.224C259.382 250.704 256.795 253.157 256.73 253.788C254.279 275.958 255.561 302.473 256.375 324.928C256.496 328.33 259.116 335.86 259.802 337.916C213.714 338.519 166.688 338.038 120.531 338.032L71.3884 337.955L71.2852 296.78C71.2425 287.331 70.7306 274.498 72.455 265.476C73.8399 258.266 76.5534 251.376 80.4568 245.158C92.0807 226.729 110.419 219.956 130.598 215.34C134.239 221.457 136.239 224.711 142.219 228.871C149.657 233.992 158.837 235.913 167.703 234.205C180.989 231.731 189.944 223.448 197.341 212.727Z" fill="#FFFF4B"/>
<path d="M185.194 266.263C197.413 266.211 214.496 265.663 226.265 266.715C226.556 271.802 227.418 281.047 225.338 285.567C211.352 285.695 197.365 285.622 183.376 285.35C183.045 279.771 181.857 270.32 185.194 266.263Z" fill="#001B82"/>
<path d="M323.657 240.228C324.818 240.454 326.728 241.242 327.905 241.679C346.544 248.61 365.109 253.451 384.473 257.965C385.078 275.968 386.48 318.865 380.958 333.954C371.51 359.736 349.277 375.148 325.431 386.297C317.683 387.928 290.822 367.287 285.631 362.089C263.881 340.3 263.542 324.77 263.647 296.211L263.671 258.247C285.558 252.609 302.479 248.046 323.657 240.228Z" fill="#FFFF4B"/>
<path d="M322.907 254.734C321.859 254.845 367.374 267.386 371.736 268.329C371.784 317.823 379.136 347.827 324.552 372.241C318.892 372.57 297.973 356.782 293.603 352.427C276.424 335.324 275.852 321.22 275.941 298.489L276.005 268.539C293.684 264.361 305.889 260.865 322.907 254.734Z" fill="#001B82"/>
<path d="M345.6 285.958C348.107 286.493 353.404 292.35 355.516 294.471C344.721 305.553 328.22 325.911 317.562 334.992C313.531 331.886 307.945 325.896 304.212 322.115C300.883 318.828 297.578 315.218 294.353 311.807C296.804 309.001 300.56 305.499 303.301 302.805C308.017 307.029 312.701 311.66 317.28 316.057C326.446 306.191 336.023 295.283 345.6 285.958Z" fill="white"/>
<path d="M161.294 70.387C184.403 70.8951 203.854 82.6573 211.448 105.111C214.899 115.327 214.294 125.205 214.109 135.794L199.614 131.122C177.979 145.525 171.848 143.783 147.945 136.114C135.384 133.236 123.69 131.619 111.119 135.626C106.346 137.148 98.2307 142.699 93.7574 140.455L93.5913 139.32C95.5277 134.504 106.229 126.419 110.6 122.794C111.205 90.6811 129.579 72.5824 161.294 70.387Z" fill="#FFFF4B"/>
<path d="M199.63 141.86L211.046 145.419C211.545 162.319 209.256 178.342 197.817 191.458C178.383 213.75 152.248 215.043 130.271 196.289C115.225 179.445 113.385 167.327 113.31 145.451C148.847 136.52 167.08 165.781 199.63 141.86Z" fill="white"/>
<path d="M263.437 202.467C263.712 202.517 265.066 203.148 265.429 203.284C280.318 208.99 287.606 207.933 301.544 202.2C327.76 208.47 342.771 213.454 351.171 240.679C345.649 239.09 326.188 231.076 322.448 231.74C304.495 238.246 287.84 242.929 269.492 248.136C261.116 230.129 250.99 221.872 233.69 213.3C243.888 207.178 252.047 205.528 263.437 202.467Z" fill="#FFFF4B"/>
<path d="M273.99 152.616C287.662 150.849 301.052 154.502 313.975 158.396C313.661 177.797 308.727 191.417 289.46 198.552C261.559 203.657 250.523 182.511 250.402 157.966C259.189 155.059 264.816 153.553 273.99 152.616Z" fill="white"/>
<path d="M277.626 111.354C278.4 111.271 279.182 111.226 279.956 111.22C305.591 110.919 316.2 126.983 316.232 150.867C308.131 147.816 298.199 145.805 289.629 144.983C274.329 143.463 262.801 145.417 248.378 150.508C248.354 129.301 255.763 115.724 277.626 111.354Z" fill="#FFFF4B"/>
</svg>
