<svg width="452" height="463" viewBox="0 0 452 463" fill="none" xmlns="http://www.w3.org/2000/svg">
<path d="M405.21 368.482C402.283 373.979 394.061 383.704 389.756 388.496C364.096 417.284 331.366 438.863 294.799 451.094C239.465 469.469 179.092 464.957 127.095 438.565C71.0274 410.606 31.4131 360.62 11.2432 301.659C-8.66877 243.45 -1.17157 181.641 26.1489 126.998C53.5823 71.7065 101.984 29.6907 160.559 10.3153C214.184 -6.97593 272.453 -2.39622 322.724 23.0575C358.663 41.0633 389.095 68.4125 410.829 102.236C415.585 109.542 421.55 118.997 424.251 127.152C427.871 130.987 431.708 140.955 433.788 146.186C459.722 203.172 456.151 275.369 428.403 330.706C425.565 336.359 421.817 344.391 418.334 349.516C416.456 352.927 408.692 367.367 405.21 368.482Z" fill="#001B82"/>
<path d="M424.251 127.152C427.871 130.987 431.708 140.955 433.788 146.186C401.905 146.914 368.844 145.61 336.824 146.164C322.023 146.42 306.73 145.521 292.01 147.183C269.833 149.686 249.518 170.617 230.307 175.969C215.289 180.151 182.083 179.428 165.001 179.681C137.051 180.235 109.094 180.563 81.1367 180.664C84.2807 175.543 90.48 166.51 96.8809 165.192C125.346 159.331 157.028 164.147 185.122 156.476C207.179 150.246 221.931 127.193 245.535 127.087C305.013 126.822 364.806 128.069 424.251 127.152Z" fill="#FFFF4B"/>
<path d="M81.0806 314.247L168.081 315.501C185.614 315.697 205.518 315.076 222.657 317.181C244.173 319.731 260.175 339.007 279.789 345.135C300.547 351.62 329.271 349.513 351.085 349.504L418.334 349.517C416.456 352.927 408.693 367.367 405.21 368.482C364.943 367.291 322.435 369.162 281.998 368.428C275.226 368.305 240.836 369.001 235.926 367.5C217.433 361.849 201.318 339.952 178.585 336.676C159.213 333.968 139.285 333.866 119.768 332.343C99.2512 330.743 92.5924 333.17 81.0806 314.247Z" fill="#FFFF4B"/>
<path d="M142.912 191.647C180.342 191.092 218.465 192.333 255.959 192.092C267.245 192.019 275.605 200.004 281.514 208.985C299.338 236.056 295.662 282.688 266.89 300.989C257.079 304.841 225.494 303.202 213.765 303.279L143.081 303.779C175.384 278.363 174.231 217.995 142.912 191.647Z" fill="white"/>
<path d="M72.3816 191.07C92.2372 188.658 104.531 205.481 110.311 222.263C116.881 241.745 115.551 263.03 106.611 281.542C100.895 293.078 94.3252 300.005 82.2168 304.113C35.1858 311.825 21.0862 207.609 72.3816 191.07Z" fill="#FFFF4B"/>
<path d="M75.4454 206.499C109.489 208.754 113.06 278.222 78.7425 289.642C44.7148 288.434 40.2569 215.251 75.4454 206.499Z" fill="#001B82"/>
<path d="M94.6719 191.223C100.67 191.103 127.063 190.112 130.691 191.66C169.563 208.245 167.733 283.782 132.948 303.506C129.264 304.473 100.646 304.073 95.2201 304.084C130.465 281.02 130.401 213.93 94.6719 191.223Z" fill="#FFFF4B"/>
<path d="M260.288 183.045C261.046 182.976 261.804 182.928 262.561 182.903C277.959 182.375 289.761 183.603 301.579 194.791C333.116 224.668 329.391 292.377 286.488 310.175C279.418 313.108 271.606 313.037 264.085 313.218C257.467 312.666 254.194 310.859 248.309 308.06C257.152 308.521 265.407 308.464 273.041 303.65C302.917 284.801 305.932 236.497 288.947 208.208C283.562 199.24 276.113 190.804 265.601 188.565C261.264 187.64 257.128 187.502 252.871 186.385C254.484 184.543 257.837 183.82 260.288 183.045Z" fill="#FFFF4B"/>
<path d="M343.072 205.853C351.012 205.737 359.042 205.525 366.974 205.564C371.9 205.588 382.622 204.615 384.161 210.189C382.783 213.922 380.929 213.402 377.64 213.552C369.215 213.611 339.436 215.721 335.438 209.84L336.074 207.846C338.904 205.398 338.799 206.098 343.072 205.853Z" fill="#FFFF4B"/>
<path d="M339.815 273.291C349.835 272.634 373.391 272.708 384.532 273.432C385.371 274.043 386.064 274.557 386.636 274.974C387.346 277.771 386.959 277.32 385.919 280.509C377.382 280.583 344.587 282.884 339.17 278.851C338.469 275.936 338.791 276.543 339.815 273.291Z" fill="#FFFF4B"/>
<path d="M376.221 239.3C385.024 239.228 413.957 237.098 419.019 241.802C419.181 244.892 419.302 243.804 417.794 246.657C410.523 246.769 379.316 248.643 375.173 244.481C374.487 241.529 374.608 242.509 376.221 239.3Z" fill="#FFFF4B"/>
<path d="M348.489 239.321C353.439 239.116 357.171 238.17 360.759 241.087C361.597 243.424 361.033 244.36 360.162 246.705C356.349 246.805 351.319 247.559 348.586 245.292C347.514 242.112 347.836 243.044 348.489 239.321Z" fill="#FFFF4B"/>
</svg>
